<?xml version="1.0" standalone="no"?><!DOCTYPE svg PUBLIC "-//W3C//DTD SVG 1.1//EN" "http://www.w3.org/Graphics/SVG/1.1/DTD/svg11.dtd"><svg t="1581418900301" class="icon" viewBox="0 0 1024 1024" version="1.1" xmlns="http://www.w3.org/2000/svg" p-id="1970" xmlns:xlink="http://www.w3.org/1999/xlink" width="200" height="200"><defs><style type="text/css"></style></defs><path d="M648.557714 68.242286l307.2 307.2c90.989714 91.062857 90.989714 182.125714 0 273.115428l-307.2 307.2c-91.062857 90.989714-182.125714 90.989714-273.115428 0l-307.2-307.2C-22.674286 557.494857-22.674286 466.432 68.242286 375.442286l307.2-307.2C466.505143-22.674286 557.568-22.674286 648.557714 68.242286zM415.451429 409.6H222.354286c-32.182857 0-48.274286 16.091429-48.274286 48.274286v96.548571c0 32.182857 16.091429 48.274286 48.274286 48.274286h193.097143v193.097143c0 32.182857 16.091429 48.274286 48.274285 48.274285h96.548572c32.182857 0 48.274286-16.091429 48.274285-48.274285V602.697143h193.097143c32.182857 0 48.274286-16.091429 48.274286-48.274286V457.874286c0-32.182857-16.091429-48.274286-48.274286-48.274286H608.548571V216.502857c0-32.182857-16.091429-48.274286-48.274285-48.274286H463.725714c-32.182857 0-48.274286 16.091429-48.274285 48.274286V409.6z" fill="#1890FF" p-id="1971"></path></svg>